<svg xmlns="http://www.w3.org/2000/svg" xmlns:xlink="http://www.w3.org/1999/xlink" version="1.1" id="Calque_1" x="0px" y="0px" width="100px" height="100px" viewBox="0 0 100 100" xml:space="preserve" enable-background="new 0 0 100 100">
  <style type="text/css">
    
	.st0{fill:#2C3E50;}

  </style>
  <g>
    <g>
      <path class="st0" d="M99.3 0.7C98.8 0.2 98.2 0 97.5 0h-95C1.8 0 1.2 0.2 0.7 0.7 0.5 0.9 0.3 1.1 0.2 1.4 0.1 1.6 0 2 0 2.3 0 3 0.3 3.6 0.7 4l33.3 46.7v46.9c0 0.3 0 0.7 0.2 1 0.3 0.8 1.1 1.4 2.1 1.4 0.7 0 1.3-0.3 1.7-0.8L65.3 72c0.5-0.5 0.7-1.2 0.6-1.9V50.6L99.3 3.9C100.2 3 100.2 1.5 99.3 0.7L99.3 0.7zM62 48.4c-0.5 0.5-0.7 1.1-0.6 1.7v19.4L38.6 92.2V50.1c0-0.6-0.2-1.2-0.6-1.7L6.7 4.6h86.6L62 48.4 62 48.4z"/>
    </g>
  </g>
</svg>
