<?xml version="1.0" encoding="utf-8"?>
<!-- Generator: Adobe Illustrator 16.0.0, SVG Export Plug-In . SVG Version: 6.00 Build 0)  -->
<!DOCTYPE svg PUBLIC "-//W3C//DTD SVG 1.1//EN" "http://www.w3.org/Graphics/SVG/1.1/DTD/svg11.dtd">
<svg version="1.1" id="Calque_1" xmlns="http://www.w3.org/2000/svg" xmlns:xlink="http://www.w3.org/1999/xlink" x="0px" y="0px"
	 width="100px" height="100px" viewBox="0 0 100 100" style="enable-background:new 0 0 100 100;" xml:space="preserve">
<style type="text/css">
<![CDATA[
	.st0{fill:#2C3E50;}
]]>
</style>
<g>
	<path class="st0" d="M99.1,72.9c-0.8-0.8-2.1-0.8-2.9,0L76,93.1V2c0-1.1-0.9-2-2-2s-2,0.9-2,2v91L51.8,72.9c-0.8-0.8-2.1-0.8-2.9,0
		s-0.8,2.1,0,2.9l23.7,23.7c0.4,0.4,0.9,0.6,1.4,0.6s1-0.2,1.4-0.6l23.7-23.7C99.9,75,99.9,73.7,99.1,72.9z"/>
	<path class="st0" d="M2.4,4.1h61.1c1.1,0,2-0.9,2-2c0-1.1-0.9-2-2-2H2.4c-1.1,0-2,0.9-2,2C0.3,3.2,1.2,4.1,2.4,4.1z"/>
	<path class="st0" d="M2.4,27.9h61.1c1.1,0,2-0.9,2-2s-0.9-2-2-2H2.4c-1.1,0-2,0.9-2,2S1.2,27.9,2.4,27.9z"/>
	<path class="st0" d="M2.4,51.7h61.1c1.1,0,2-0.9,2-2s-0.9-2-2-2H2.4c-1.1,0-2,0.9-2,2S1.2,51.7,2.4,51.7z"/>
	<path class="st0" d="M42.2,71.5H2.4c-1.1,0-2,0.9-2,2s0.9,2,2,2h39.8c1.1,0,2-0.9,2-2S43.3,71.5,42.2,71.5z"/>
	<path class="st0" d="M42.2,95.3H2.4c-1.1,0-2,0.9-2,2c0,1.1,0.9,2,2,2h39.8c1.1,0,2-0.9,2-2C44.2,96.2,43.3,95.3,42.2,95.3z"/>
</g>
</svg>
