<?xml version="1.0" encoding="utf-8"?>
<!-- Generator: Adobe Illustrator 16.0.0, SVG Export Plug-In . SVG Version: 6.00 Build 0)  -->
<!DOCTYPE svg PUBLIC "-//W3C//DTD SVG 1.1//EN" "http://www.w3.org/Graphics/SVG/1.1/DTD/svg11.dtd">
<svg version="1.1" id="Capa_1" xmlns="http://www.w3.org/2000/svg" xmlns:xlink="http://www.w3.org/1999/xlink" x="0px" y="0px"
	 width="73.145px" height="80px" viewBox="219.429 216 73.145 80" enable-background="new 219.429 216 73.145 80"
	 xml:space="preserve">
<g>
	<g>
		<path fill="#D80027" d="M234.323,231.864c11.811-10.684,29.487-10.847,41.461-1.095l-9.491,0.359
			c-1.226,0.049-2.173,1.062-2.124,2.287c0.049,1.193,1.029,2.124,2.205,2.124c0.033,0,0.049,0,0.082,0l14.571-0.539
			c1.193-0.049,2.124-1.013,2.124-2.206v-0.164c0-0.032,0-0.049,0-0.082v-0.016l0,0l-0.539-14.409
			c-0.049-1.225-1.078-2.173-2.287-2.124c-1.226,0.049-2.173,1.062-2.124,2.287l0.344,9.034c-5.931-4.852-13.232-7.662-21.041-8.054
			c-9.671-0.49-18.967,2.826-26.138,9.328c-9.867,8.936-14.049,22.527-10.913,35.465c0.245,1.013,1.144,1.683,2.14,1.683
			c0.18,0,0.343-0.016,0.523-0.064c1.176-0.295,1.911-1.487,1.617-2.663C221.989,251.647,225.648,239.706,234.323,231.864z"/>
		<path fill="#D80027" d="M291.548,247.939c-0.294-1.176-1.486-1.911-2.662-1.617c-1.177,0.294-1.911,1.487-1.617,2.663
			c2.761,11.37-0.915,23.312-9.59,31.153c-6.094,5.505-13.738,8.217-21.351,8.217c-7.27,0-14.523-2.467-20.372-7.335l9.606-0.865
			c1.208-0.114,2.107-1.177,1.993-2.401c-0.114-1.226-1.176-2.107-2.401-1.993l-14.522,1.307c-1.209,0.114-2.107,1.176-1.993,2.401
			l1.307,14.523c0.098,1.143,1.062,2.009,2.189,2.009c0.065,0,0.13,0,0.196-0.017c1.209-0.114,2.107-1.176,1.993-2.401l-0.784-8.838
			c5.93,4.803,13.2,7.597,20.959,7.988c0.621,0.033,1.242,0.05,1.846,0.05c9.001,0,17.562-3.3,24.292-9.377
			C290.503,274.469,294.685,260.894,291.548,247.939z"/>
	</g>
</g>
</svg>
